<?xml version="1.0" encoding="utf-8"?>
<!-- Generator: Adobe Illustrator 23.0.4, SVG Export Plug-In . SVG Version: 6.00 Build 0)  -->
<svg version="1.1" id="Layer_1" width="100%" height="100%" xmlns="http://www.w3.org/2000/svg" xmlns:xlink="http://www.w3.org/1999/xlink" x="0px" y="0px"
	 viewBox="0 0 632.99 268.63" style="enable-background:new 0 0 632.99 268.63;" xml:space="preserve">
<style type="text/css">
	.st0{clip-path:url(#SVGID_2_);}
	.st1{fill:#0A2D72;stroke:#0A2D72;stroke-miterlimit:10;}
	.st2{fill:url(#SVGID_3_);}
	.st3{fill:url(#SVGID_4_);}
	.st4{fill:#FFFFFF;}
	.st5{fill:#0A2D72;}
</style>
<g>
	<defs>
		<rect id="SVGID_1_" x="21.41" y="23.14" width="225.74" height="225.74"/>
	</defs>
	<clipPath id="SVGID_2_">
		<use xlink:href="#SVGID_1_"  style="overflow:visible;"/>
	</clipPath>
	<g class="st0">
		<g>
			<polygon class="st1" points="142.28,297.32 125.38,-25.25 126.29,-25.3 143.2,297.27 			"/>
		</g>
		<g>

				<rect x="133.83" y="-25.5" transform="matrix(0.9877 -0.1564 0.1564 0.9877 -19.6234 22.6817)" class="st1" width="0.92" height="323.02"/>
		</g>
		<g>
			<polygon class="st1" points="175.64,292.13 92.04,-19.88 92.93,-20.11 176.53,291.9 			"/>
		</g>
		<g>
			<g>

					<rect x="-27.22" y="135.55" transform="matrix(0.9986 -0.0527 0.0527 0.9986 -6.9761 7.2604)" class="st1" width="323.02" height="0.92"/>
			</g>
			<g>

					<rect x="-27.22" y="135.55" transform="matrix(0.9877 -0.1562 0.1562 0.9877 -19.5921 22.6393)" class="st1" width="323.02" height="0.92"/>
			</g>
			<g>
				<polygon class="st1" points="-21.6,178.25 -21.84,177.37 290.17,93.76 290.41,94.65 				"/>
			</g>
		</g>
		<g>
			<g>
				<polygon class="st1" points="290.17,178.25 -21.84,94.65 -21.6,93.76 290.41,177.37 				"/>
			</g>
			<g>

					<rect x="133.83" y="-25.5" transform="matrix(0.1564 -0.9877 0.9877 0.1564 -21.0558 247.3657)" class="st1" width="0.92" height="323.02"/>
			</g>
			<g>

					<rect x="133.83" y="-25.5" transform="matrix(0.0523 -0.9986 0.9986 0.0523 -8.5643 262.9941)" class="st1" width="0.92" height="323.02"/>
			</g>
		</g>
		<g>

				<rect x="133.83" y="-25.5" transform="matrix(0.9336 -0.3584 0.3584 0.9336 -39.8221 57.1576)" class="st1" width="0.92" height="323.02"/>
		</g>
		<g>

				<rect x="-27.22" y="135.55" transform="matrix(0.9336 -0.3584 0.3584 0.9336 -39.8241 57.1618)" class="st1" width="323.02" height="0.92"/>
		</g>
		<g>

				<rect x="133.83" y="-25.5" transform="matrix(0.891 -0.454 0.454 0.891 -47.1106 75.7889)" class="st1" width="0.92" height="323.01"/>
		</g>
		<g>

				<rect x="-27.22" y="135.55" transform="matrix(0.8913 -0.4535 0.4535 0.8913 -47.0746 75.6805)" class="st1" width="323.02" height="0.92"/>
		</g>
		<g>

				<rect x="133.83" y="-25.5" transform="matrix(0.8387 -0.5446 0.5446 0.8387 -52.4118 95.0808)" class="st1" width="0.92" height="323.02"/>
		</g>
		<g>

				<rect x="-27.22" y="135.55" transform="matrix(0.8389 -0.5443 0.5443 0.8389 -52.3952 95.0052)" class="st1" width="323.02" height="0.92"/>
		</g>
		<g>

				<rect x="133.83" y="-25.5" transform="matrix(0.7771 -0.6293 0.6293 0.7771 -55.6672 114.8197)" class="st1" width="0.92" height="323.01"/>
		</g>
		<g>

				<rect x="-27.22" y="135.55" transform="matrix(0.7774 -0.629 0.629 0.7774 -55.6577 114.7348)" class="st1" width="323.02" height="0.92"/>
		</g>
		<g>

				<rect x="133.83" y="-25.5" transform="matrix(0.7071 -0.7071 0.7071 0.7071 -56.8416 134.7909)" class="st1" width="0.92" height="323.02"/>
		</g>
		<g>

				<rect x="-27.22" y="135.55" transform="matrix(0.7071 -0.7071 0.7071 0.7071 -56.8416 134.7913)" class="st1" width="323.02" height="0.92"/>
		</g>
		<g>

				<rect x="133.83" y="-25.5" transform="matrix(0.6293 -0.7771 0.7771 0.6293 -55.9218 154.7769)" class="st1" width="0.92" height="323.02"/>
		</g>
		<g>

				<rect x="133.83" y="-25.5" transform="matrix(0.5446 -0.8387 0.8387 0.5446 -52.9184 174.5548)" class="st1" width="0.92" height="323.02"/>
		</g>
		<g>

				<rect x="133.83" y="-25.5" transform="matrix(0.454 -0.891 0.891 0.454 -47.8636 193.9126)" class="st1" width="0.92" height="323.02"/>
		</g>
		<g>

				<rect x="133.83" y="-25.5" transform="matrix(0.3584 -0.9336 0.9336 0.3584 -40.813 212.6358)" class="st1" width="0.92" height="323.02"/>
		</g>
		<g>
			<g>

					<rect x="-27.22" y="135.55" transform="matrix(0.629 -0.7774 0.7774 0.629 -55.9135 154.8612)" class="st1" width="323.01" height="0.92"/>
			</g>
			<g>

					<rect x="-27.22" y="135.55" transform="matrix(0.5438 -0.8392 0.8392 0.5438 -52.8805 174.7387)" class="st1" width="323.02" height="0.92"/>
			</g>
			<g>

					<rect x="-27.22" y="135.55" transform="matrix(0.4535 -0.8913 0.8913 0.4535 -47.8288 194.0218)" class="st1" width="323.01" height="0.92"/>
			</g>
			<g>

					<rect x="-27.22" y="135.55" transform="matrix(0.3592 -0.9332 0.9332 0.3592 -40.8847 212.4717)" class="st1" width="323.02" height="0.92"/>
			</g>
		</g>
		<g>
			<g>
				<polygon class="st1" points="92.93,292.13 92.04,291.9 175.64,-20.11 176.53,-19.88 				"/>
			</g>
			<g>

					<rect x="-27.22" y="135.55" transform="matrix(0.1562 -0.9877 0.9877 0.1562 -21.0247 247.409)" class="st1" width="323.02" height="0.92"/>
			</g>
			<g>
				<polygon class="st1" points="126.29,297.32 125.38,297.27 142.28,-25.3 143.2,-25.25 				"/>
			</g>
		</g>
	</g>
</g>
<g>
	<linearGradient id="SVGID_3_" gradientUnits="userSpaceOnUse" x1="141.4707" y1="125.0569" x2="141.4707" y2="135.0367">
		<stop  offset="0" style="stop-color:#014C77"/>
		<stop  offset="1" style="stop-color:#DDDDDD"/>
	</linearGradient>
	<path class="st2" d="M141.49,125.06v9.98l-0.05-9.54C141.49,125.33,141.49,125.19,141.49,125.06z"/>
	<linearGradient id="SVGID_4_" gradientUnits="userSpaceOnUse" x1="139.1193" y1="137.411" x2="143.914" y2="142.2057">
		<stop  offset="0" style="stop-color:#014C77"/>
		<stop  offset="1" style="stop-color:#DDDDDD"/>
	</linearGradient>
	<path class="st3" d="M141.54,144.58c0-0.57-0.02-1.15-0.05-1.7v-7.85L141.54,144.58z"/>
</g>
<polygon class="st4" points="86.88,88.1 86.88,162.03 107.75,182.9 181.7,182.9 181.7,88.1 "/>
<g>
	<path class="st5" d="M139.33,126.89h-26.9c-1.39,0-2.52-1.13-2.52-2.52v-8.11c0-1.39,1.13-2.52,2.52-2.52h26.9
		c1.39,0,2.52,1.13,2.52,2.52v8.11C141.85,125.76,140.72,126.89,139.33,126.89z"/>
	<path class="st5" d="M158.15,126.89h-10.66c-1.39,0-2.52-1.13-2.52-2.52v-8.11c0-1.39,1.13-2.52,2.52-2.52h10.66
		c1.39,0,2.52,1.13,2.52,2.52v8.11C160.68,125.76,159.55,126.89,158.15,126.89z"/>
	<path class="st5" d="M128.68,157.26v-40.92c0-1.39,1.13-2.52,2.52-2.52h8.11c1.39,0,2.52,1.13,2.52,2.52v40.92
		c0,1.39-1.13,2.52-2.52,2.52h-8.11C129.81,159.78,128.68,158.65,128.68,157.26z"/>
	<path class="st5" d="M130.47,125.19v4.57h-1.79v-0.35c0-1.39-1.14-2.52-2.52-2.52h-0.2v-1.69H130.47z"/>
</g>
<g>
	<path class="st5" d="M326.34,175.42h-7.77c-1.48,0-2.22-0.7-2.22-2.1v-65.49c0-0.82-0.41-1.23-1.23-1.23h-15.54
		c-1.48,0-2.22-0.7-2.22-2.1v-6.29c0-1.4,0.74-2.1,2.22-2.1h45.76c1.48,0,2.22,0.7,2.22,2.1v6.29c0,1.4-0.74,2.1-2.22,2.1h-15.54
		c-0.91,0-1.36,0.41-1.36,1.23v65.49C328.43,174.72,327.73,175.42,326.34,175.42z"/>
	<path class="st5" d="M399.03,175.42h-26.64c-6.08,0-10.79-1.68-14.12-5.06s-4.99-8.06-4.99-14.06v-24.67
		c0-6.08,1.66-10.79,4.99-14.12s8.04-4.99,14.12-4.99h10.11c6.08,0,10.81,1.66,14.18,4.99c3.37,3.33,5.06,8.04,5.06,14.12v15.66
		c0,1.48-0.74,2.22-2.22,2.22h-33.05c-0.91,0-1.36,0.41-1.36,1.23v5.3c0,6,3,9.01,9,9.01h24.92c1.48,0,2.22,0.74,2.22,2.22v6.17
		C401.25,174.76,400.51,175.42,399.03,175.42z M366.48,141.13h22.08c0.82,0,1.23-0.41,1.23-1.23v-7.89c0-3.12-0.7-5.41-2.1-6.84
		c-1.4-1.44-3.66-2.16-6.78-2.16h-6.79c-3.12,0-5.38,0.72-6.78,2.16c-1.4,1.44-2.1,3.72-2.1,6.84v7.89
		C365.24,140.72,365.65,141.13,366.48,141.13z"/>
	<path class="st5" d="M428.26,175.42h-7.77c-1.4,0-2.1-0.7-2.1-2.1v-82.5c0-1.4,0.7-2.1,2.1-2.1h7.77c1.4,0,2.1,0.7,2.1,2.1v82.5
		C430.36,174.72,429.66,175.42,428.26,175.42z"/>
	<path class="st5" d="M449.6,102.04V90.82c0-1.31,0.66-1.98,1.97-1.98h8.02c1.31,0,1.98,0.66,1.98,1.98v11.22
		c0,1.4-0.66,2.1-1.98,2.1h-8.02C450.25,104.14,449.6,103.44,449.6,102.04z M449.6,173.32v-58.7c0-1.4,0.66-2.1,1.97-2.1h7.9
		c1.4,0,2.1,0.7,2.1,2.1v58.7c0,0.82-0.15,1.38-0.43,1.66c-0.29,0.29-0.8,0.43-1.54,0.43h-7.89
		C450.29,175.42,449.6,174.72,449.6,173.32z"/>
	<path class="st5" d="M490.04,175.42h-7.77c-1.4,0-2.1-0.7-2.1-2.1v-58.7c0-1.4,0.69-2.1,2.1-2.1h7.77c1.4,0,2.1,0.7,2.1,2.1v4.44
		h0.49c1.98-4.36,6.12-6.54,12.46-6.54h5.43c6,0,10.6,1.64,13.81,4.93c3.21,3.29,4.81,8.02,4.81,14.18v41.68
		c0,1.4-0.74,2.1-2.22,2.1h-7.77c-1.4,0-2.1-0.7-2.1-2.1v-41.19c0-6.08-3-9.13-9-9.13h-5.8c-6.74,0-10.11,3.49-10.11,10.48v39.83
		C492.14,174.72,491.44,175.42,490.04,175.42z"/>
	<path class="st5" d="M556.27,175.42h-7.77c-1.4,0-2.1-0.7-2.1-2.1v-82.5c0-1.4,0.69-2.1,2.1-2.1h7.77c1.4,0,2.1,0.7,2.1,2.1v82.5
		C558.37,174.72,557.66,175.42,556.27,175.42z M582.17,112.52h8.88c0.74,0,1.25,0.22,1.54,0.68c0.29,0.45,0.18,1.05-0.31,1.79
		l-17.39,27.63v0.49l18.74,29.85c0.41,0.66,0.47,1.23,0.19,1.73c-0.29,0.49-0.89,0.74-1.79,0.74h-8.02c-1.89,0-3.29-0.7-4.2-2.1
		l-17.39-28.49c-0.57-1.06-0.57-2.17,0-3.33l16.16-27.01C579.33,113.18,580.52,112.52,582.17,112.52z"/>
</g>
</svg>
